<?xml version="1.0" encoding="iso-8859-1"?>
<!-- Uploaded to: SVG Repo, www.svgrepo.com, Generator: SVG Repo Mixer Tools -->
<!DOCTYPE svg PUBLIC "-//W3C//DTD SVG 1.1//EN" "http://www.w3.org/Graphics/SVG/1.1/DTD/svg11.dtd">
<svg version="1.1" id="Capa_1" xmlns="http://www.w3.org/2000/svg" xmlns:xlink="http://www.w3.org/1999/xlink" 
	 width="800px" height="800px" viewBox="0 0 150.593 150.593"
	 xml:space="preserve">
<g>
	<path style="fill:#010002;" d="M99.489,56.27c0.031,0.161,0.074,0.277,0.116,0.372c0.116,0.185,0.316,0.271,0.517,0.271
		c-1.013,1.095-1.551,2.603-1.266,4.185c0.295,1.68,1.413,3.009,2.848,3.66c-0.98,1.442-1.435,3.246-1.097,5.094
		c0.664,3.773,4.261,6.305,8.036,5.632c0.285-0.05,0.538-0.148,0.791-0.227c0.011,0.026,0.011,0.048,0.011,0.074
		c0.718,4.042,5.563,8.714,10.421,7.859c4.835-0.854,7.805-6.908,7.082-10.947c0-0.026-0.011-0.047-0.011-0.076
		c0.29-0.011,0.564-0.011,0.833-0.058c3.771-0.665,6.297-4.271,5.622-8.042c-0.333-1.846-1.366-3.391-2.779-4.412
		c1.139-1.107,1.719-2.736,1.439-4.411c-0.279-1.576-1.287-2.803-2.589-3.488c0.174-0.065,0.442-0.258,0.332-0.83
		c-0.026-0.116-0.037-0.304-0.048-0.546c-0.095-1.601-0.316-5.348-3.48-7.842c-0.453-0.361-0.97-0.67-1.508-0.944
		c-3.285-5.286-1.936-10.272-2.194-12.906c0.854,0.767,2.025,1.16,3.243,0.944c2.094-0.367,3.486-2.355,3.111-4.438
		c-0.363-2.085-2.367-3.478-4.439-3.111c-2.089,0.367-3.486,2.36-3.106,4.446c0.021,0.129,0.063,0.253,0.11,0.377
		c-0.479-0.169-1.107-0.206-2.024-0.037c-6.376,1.123-16.422,8.765-17.982,18.457c-0.606,0.577-1.14,1.187-1.562,1.856
		c-2.125,3.43-1.038,7.021-0.574,8.559C99.431,55.978,99.467,56.157,99.489,56.27z M117.809,71.423
		c-3.249,0.572-6.486-2.452-6.671-3.533c-0.19-1.079,2.389-1.764,5.632-2.336c3.254-0.569,5.906-0.812,6.096,0.27
		C123.066,66.904,121.052,70.851,117.809,71.423z M127.871,61.438c-2.162,0.757-7.679,0.145-9.355-0.432
		c-0.327,0.783-1.202,1.236-2.299,1.432c-1.087,0.195-2.078,0.068-2.647-0.557c-1.371,1.113-6.35,3.57-8.648,3.602
		c-3.059,0.042-2.088-3.019-4.388-8.698c0.127-0.092,0.259-0.206,0.422-0.374c1.008-0.981,4.05-3.974,13.216-5.593
		c9.154-1.622,13.046,0.155,14.322,0.733c0.211,0.103,0.369,0.168,0.527,0.211C128.809,57.884,130.76,60.428,127.871,61.438z
		 M120.203,36.624l0.285,1.055l1.022,0.361l-0.917,0.593l-0.021,1.087l-0.844-0.686l-1.033,0.308l0.38-1.015l-0.612-0.896
		l1.076,0.053L120.203,36.624z M119.506,33.676l-0.686,0.448l-0.031,0.823l-0.633-0.515l-0.791,0.232l0.301-0.768l-0.454-0.675
		l0.808,0.045l0.495-0.654l0.222,0.794L119.506,33.676z M117.535,30.021l0.337-0.443l0.138,0.545l0.538,0.183l-0.475,0.308
		l-0.011,0.556l-0.443-0.351l-0.527,0.156l0.195-0.517L116.97,30L117.535,30.021z M113.316,31.577l0.337-0.443l0.138,0.538
		l0.538,0.19l-0.475,0.308v0.556l-0.443-0.351l-0.538,0.156l0.2-0.525l-0.321-0.459L113.316,31.577z M112.545,35.722l1.382-1.803
		l0.596,2.199l2.146,0.762l-1.909,1.242l-0.073,2.273l-1.762-1.438l-2.183,0.649l0.812-2.127l-1.286-1.88L112.545,35.722z
		 M107.599,37.911l0.507-0.649l0.211,0.794l0.774,0.271l-0.69,0.448l-0.021,0.814l-0.627-0.514l-0.786,0.232l0.285-0.765
		l-0.464-0.675L107.599,37.911z M105.648,40.75l0.338-0.442l0.147,0.54l0.527,0.19l-0.464,0.3l-0.011,0.556l-0.433-0.351
		l-0.548,0.158l0.211-0.52l-0.333-0.459L105.648,40.75z M100.781,47.711c1.804-2.921,5.764-4.941,11.781-5.998
		c6.021-1.06,10.446-0.52,13.136,1.608c2.816,2.22,3.027,5.653,3.101,7.122c0.011,0.055,0.011,0.108,0.011,0.158
		c-1.561-0.714-5.559-2.394-14.797-0.762c-9.25,1.63-12.425,4.572-13.638,5.777c-0.021-0.048-0.031-0.098-0.053-0.15
		C99.884,54.055,98.898,50.757,100.781,47.711z M123.145,56.146c0,1.097-0.886,1.988-1.982,1.988s-1.993-0.891-1.993-1.988
		c0-1.097,0.896-1.988,1.993-1.988S123.145,55.049,123.145,56.146z M111.407,58.213c0,1.102-0.886,1.988-1.982,1.988
		c-1.098,0-1.983-0.891-1.983-1.988c0-1.094,0.886-1.986,1.983-1.986C110.521,56.228,111.407,57.119,111.407,58.213z M53.228,72.438
		c0.804,0.954,1.608,1.69,2.937,1.964c-0.382,0.469,0.594,0.933-0.118,0.891C55.339,75.257,53.233,73.026,53.228,72.438z
		 M115.531,58.743c1.018-0.177,1.962,0.309,2.468,1.134c-0.644-0.562-1.498-0.862-2.395-0.701c-0.87,0.15-1.556,0.69-1.978,1.392
		C113.828,59.655,114.56,58.917,115.531,58.743z M58.968,93.737l-0.011,0.021c-0.206,0.633-0.833,0.854-1.395,0.522l-0.29-0.164
		c-0.562-0.343-0.933-0.864-0.83-1.187c0.1-0.326,0.717-0.532,1.376-0.464l0.335,0.032C58.799,92.562,59.168,93.121,58.968,93.737z
		 M149.924,112.137l-9.482,16.433c0,0-6.148-2.357-3.49-7.294C139.62,116.335,146.913,112.664,149.924,112.137z M51.569,94.64
		c1.134,0.053,2.004-0.517,2.961-1.318c-0.2,0.617-2.61,2.42-3.182,2.289C50.786,95.473,51.717,95.225,51.569,94.64z
		 M127.512,128.39l-18.964-0.006c0,0-1.055-6.491,4.567-6.66C118.726,121.561,125.544,126.032,127.512,128.39z M19.667,86.618
		c1.83-1.165-0.132-4.261,1.532-5.674c2.323-1.973,4.992-1.814,6.096-3.591c0.158-0.253,0.277-0.428,0.324-0.527
		c0.045-0.026,0.077-0.053,0.113-0.079c1.081,0.316,3.787-3.457,6.637-4.443c1.411-0.493,2.55,1.985,3.127,3.31l2.252-2.969
		l-1.226,0.448c-0.232-3.122-2.695-3.581-4.33-2.874c-2.932,1.279-3.807,4.379-5.832,5.677c0.388-0.763,0.577-1.999,0.453-3.389
		c-0.189-2.207-1.107-3.937-2.046-3.854c-0.828,0.071-1.395,1.505-1.395,3.354c-0.161-0.124-0.316-0.253-0.496-0.372
		c-2.365-1.582-5.055-1.719-5.993-0.314c-0.941,1.408,0.222,3.834,2.597,5.411c1.203,0.812,2.484,1.238,3.586,1.281
		c-2.188,0.438-4.823,0-6.481,1.523c-1.717,1.572-0.032,4.583-0.928,5L19.667,86.618z M26.99,71.038
		c0.593-0.053,1.181,1.05,1.294,2.458c0.098,1.081-0.113,2.02-0.485,2.431c0.005-1.015-0.612-2.22-1.669-3.262
		C26.217,71.742,26.546,71.083,26.99,71.038z M27.092,76.04c-0.427-0.261-0.788-1.047-0.925-2.041
		C26.794,74.661,27.134,75.407,27.092,76.04z M23.095,76.478c-1.506-1.01-2.247-2.549-1.648-3.446
		c0.601-0.891,2.302-0.804,3.812,0.201c0.092,0.058,0.164,0.118,0.246,0.185c0.237,1.526,0.809,2.729,1.463,3.119
		c-0.023,0.047-0.034,0.1-0.061,0.137c-0.076,0.105-0.155,0.206-0.258,0.274c-0.005,0-0.01,0.011-0.01,0.011
		C25.887,77.527,24.418,77.343,23.095,76.478z M139.499,101.474c-1.118-3.254-9.782-28.395-11.09-28.102
		c0.047,4.783-3.265,10.272-8.285,11.158c-5.094,0.902-10.141-3.232-11.644-7.646c-1.413,0.18-2.779-0.047-4.029-0.532l-0.928,4.145
		h-6.154c0-0.073,0.021-0.147,0.021-0.227c0-6.429-5.21-11.644-11.639-11.644h-1.34c-12.69,0-22.955,9.961-23.641,22.491
		c-0.098-0.037-0.129-0.132-0.237-0.158l-0.438-0.032l0.361-1.097l-2.236-0.738l-0.772,2.362c-0.372,0.138-0.728,0.332-1.007,0.507
		c-0.087-0.074-0.185-0.116-0.282-0.153l-0.361-0.11c-0.103-0.037-0.206-0.069-0.313-0.053c-0.119-0.322-0.304-0.659-0.515-1.019
		l0.778-2.346l-10.167-3.344l-1.387,4.208l5.999,1.973c-0.232,0.896,0.047,1.751,0.707,2.268c-0.264,0-0.541-0.021-0.836-0.032
		l-0.691-0.037l0.068,0.312l-6.069-1.993l-2.689,8.179l10.165,3.344l2.5-7.594c0.501-0.38,0.973-0.812,1.35-1.245
		c0.061,0.053,0.134,0.085,0.206,0.111l0.356,0.11c0.077,0.037,0.145,0.053,0.221,0.053c0.042,0.569,0.174,1.202,0.351,1.799
		l-2.505,7.599l2.236,0.738l1.748-5.32c0.271,0.337,0.541,0.569,0.789,0.686l0.103,0.042c0.345,0.116,0.588,0.021,0.741-0.079
		c0.409-0.264,0.464-0.791,0.541-1.414c0.047-0.432,0.113-1.038,0.335-1.233l0.532-0.464l-0.583-0.401
		c-0.248-0.152-0.475-0.327-0.696-0.464c0.324-0.011,0.638-0.095,0.917-0.242c0.34-0.169,0.594-0.48,0.805-0.817
		c0.329,2.789,1.163,5.426,2.354,7.841c0,0-20.179,7.141-28.334,0C26.66,95.716,29.16,92.552,23.15,92.552
		c-6.523,0-11.815,5.289-11.815,11.817s5.287,11.817,11.815,11.817h6.009l-4.245,7.346H9.208c-2.307,0-4.179-1.882-4.179-4.182
		c0-2.305,1.872-4.176,4.179-4.176c1.382,0,2.51-1.129,2.51-2.516c0-1.382-1.128-2.511-2.51-2.511c-5.07,0-9.208,4.13-9.208,9.202
		c0,5.068,4.132,9.208,9.208,9.208h81.391c1.392,0,2.51-1.118,2.51-2.505c0-1.403-1.118-2.521-2.51-2.521H76.059l-4.25-7.346h0.967
		c13.129,0,12.965-10.657,12.965-23.772c0-0.169-0.047-0.337-0.058-0.501c0.026,0,0.037,0,0.058,0c3.707,0,6.95-1.751,9.086-4.435
		l7.336-0.918l-5.089,22.761c0.231,1.339,3.017,2.099,7.267,2.32c1.814,3.385,9.118,2.367,13.12,2.995
		c3.491,3.464-2.088,6.935-0.337,6.634c6.729-1.191,12.593,5.584,14.063,4.482c1.197-0.886,0.122-10.009-1.086-15.673
		c0.332-0.073,0.622-0.189,0.944-0.284c0.264,1.449,0.959,2.699,2.209,3.396c4.894-0.453,3.977,6.054,4.862,4.524
		c3.428-5.916,12.366-6.049,12.477-7.878C150.652,108.482,144.466,104.279,139.499,101.474z M60.576,94.328l-0.005,0.048
		c-0.361,1.081-1.463,1.492-2.452,0.918l-0.506-0.322c-0.432-0.253-0.789-0.564-1.052-0.896c0.615,1.318,1.582,2.015,2.922,2.9
		c-0.807,0.686-0.256,2.858-1.118,2.6c-0.023-0.005-0.04,0-0.061-0.005c-0.847-0.349-2.463-3.465-2.317-5.77
		c-0.177,0.18-0.383,0.285-0.572,0.222l-0.351-0.11c-0.188-0.069-0.296-0.27-0.33-0.522c-1.263,1.946-4.396,3.491-5.292,3.265
		c-1.015-0.243,0.85-1.72,0.596-2.801c1.603,0.09,2.8,0.111,4.071-0.596c-0.406,0.11-0.886,0.143-1.384,0.11l-0.594-0.062
		c-1.139-0.116-1.782-1.087-1.418-2.184l0.016-0.031c0.356-1.098,0.788-2.816,1.777-2.236l0.506,0.306
		c0.87,0.527,2.004,2.342,2.128,3.144c0.15-0.121,0.33-0.185,0.485-0.127l0.361,0.111c0.158,0.068,0.266,0.211,0.313,0.4
		c0.577-0.559,2.571-1.35,3.581-1.244l0.588,0.058c0.124,0.011,0.158,0.105,0.242,0.132c-0.005,0.285-0.079,0.527-0.079,0.791
		c0,0.506,0.058,0.991,0.092,1.461C60.673,94.038,60.621,94.202,60.576,94.328z M30.499,123.538l4.245-7.341h31.503l4.243,7.341
		H30.499z M104.167,90.168c1.281-0.222,2.499,0.633,2.731,1.909c0.222,1.286-0.633,2.515-1.914,2.742
		c-1.266,0.227-2.5-0.628-2.722-1.915C102.031,91.618,102.875,90.395,104.167,90.168z M102.574,98.679
		c1.281-0.227,2.5,0.628,2.731,1.909c0.222,1.287-0.633,2.511-1.914,2.731c-1.287,0.232-2.51-0.611-2.731-1.908
		C100.427,100.124,101.282,98.905,102.574,98.679z M124.474,109.305c-15.398,2.716-24.869,2.104-26.44,0.026
		c-0.575-0.78,0.147-3.648,0.906-4.092c0.765-0.443,14.054,1.445,24.812-0.09c1.081-0.152,0.876-4.535,1.05-3.496
		C124.991,102.682,125.566,109.12,124.474,109.305z M54.886,92.419c-0.103,0.322-0.72,0.522-1.374,0.459l-0.332-0.031
		c-0.648-0.053-1.018-0.622-0.812-1.244l0.006-0.021c0.205-0.622,0.833-0.854,1.395-0.522l0.29,0.175
		C54.62,91.57,54.994,92.098,54.886,92.419z M53.167,71.558c-0.005-0.309,0.638-0.67,1.421-0.799l0.396-0.061
		c0.775-0.129,1.424,0.25,1.418,0.844v0.021c0,0.588-0.643,0.978-1.408,0.846l-0.412-0.068C53.8,72.217,53.167,71.855,53.167,71.558
		z M56.191,93.864c0.293,1.208,0.665,2.193,1.601,2.816c-0.461,0.39,0.14,1.139-0.396,0.912
		C56.856,97.366,55.994,94.481,56.191,93.864z M37.79,90.184l-5.643-8.517l4.989-3.296l5.643,8.511L37.79,90.184z M47.941,71.563
		l-0.005-0.021c0-0.583,0.638-0.968,1.414-0.844l0.4,0.076c0.783,0.129,1.427,0.475,1.427,0.783c0,0.298-0.633,0.659-1.416,0.783
		l-0.411,0.076C48.584,72.547,47.946,72.162,47.941,71.563z M48.178,74.408c1.334-0.279,2.117-1.005,2.927-1.975
		c0,0.583-2.102,2.83-2.813,2.872C47.59,75.35,48.561,74.877,48.178,74.408z M45.246,70.197c-0.042,0.361-0.047,0.757-0.037,1.118
		v0.319c0,0.902,0.696,1.629,1.716,1.888c-0.303,0.076-0.633,0.147-0.983,0.221l-0.82,0.168l0.361,0.433h-3.019l3.533,9.104H50.1
		v-8.284c0.633-0.594,1.189-1.258,1.566-1.917c0.087,0.011,0.18,0.016,0.277,0.016h0.448c0.09,0,0.193-0.011,0.28-0.026
		c0.366,0.665,0.933,1.329,1.566,1.928l0.005,8.269l4.116-0.005l3.52-9.105l-3.024,0.005l0.356-0.443l-0.82-0.163
		c-0.34-0.068-0.675-0.14-0.973-0.211c0.366-0.095,0.696-0.248,0.978-0.464c0.475-0.361,0.733-0.876,0.733-1.469l-0.005-0.274
		c0.01-0.369,0.005-0.757-0.042-1.118l4.396-0.005l1.922-4.971l-3.531-6.618l-7.641,0.016v11.101
		c-0.557,0.314-1.092,0.669-1.453,0.994c-0.119-0.026-0.253-0.047-0.39-0.047h-0.448c-0.134,0-0.269,0.021-0.388,0.053
		c-0.361-0.324-0.891-0.681-1.458-1l-0.005-11.101l-7.641,0.005l-3.52,6.621l1.928,4.962H45.246z M47.05,69.172l0.707,0.124
		c1.2,0.206,3.214,1.437,3.662,2.096c0.124-0.158,0.309-0.256,0.517-0.256l0.456-0.005c0.198,0.005,0.388,0.103,0.522,0.261
		c0.448-0.654,2.452-1.909,3.657-2.106l0.707-0.124c1.36-0.227,1.205,1.382,1.21,2.423v0.045c0,1.031-1.118,1.706-2.484,1.474
		l-0.699-0.124c-0.599-0.087-1.134-0.266-1.571-0.477c1.205,0.973,2.605,1.281,4.487,1.68c-0.69,0.838,0.902,2.649-0.361,2.565
		c-1.128-0.068-4.174-2.263-4.891-4.314c-0.143,0.216-0.33,0.345-0.585,0.345h-0.448c-0.237,0-0.448-0.134-0.578-0.351
		c-0.717,2.052-3.763,4.261-4.886,4.324c-1.263,0.079,0.319-1.727-0.361-2.57c1.877-0.388,3.267-0.712,4.475-1.675
		c-0.424,0.211-0.96,0.385-1.558,0.482l-0.704,0.124c-1.355,0.222-2.484-0.438-2.479-1.479v-0.04
		C45.845,70.553,45.689,68.95,47.05,69.172z M30.797,94.824l-5.634-8.517l4.986-3.301l5.637,8.516L30.797,94.824z M32.339,80.887
		L29.7,76.895l4.989-3.307l2.642,3.992L32.339,80.887z M26.702,78.877l2.642,3.997l-4.991,3.297l-2.64-3.998L26.702,78.877z"/>
</g>
</svg>