<?xml version="1.0" ?>
<!-- Uploaded to: SVG Repo, www.svgrepo.com, Generator: SVG Repo Mixer Tools -->
<svg width="800px" height="800px" viewBox="0 0 64 64" xmlns="http://www.w3.org/2000/svg">
<defs>
<style>.cls-1{fill:#e0e9ee;}.cls-2{fill:#d0e1e8;}.cls-3{fill:#d9387c;}.cls-4{fill:#dd5891;}.cls-5{fill:#9be69d;}.cls-6{fill:#6fd7a3;}.cls-7{fill:#f0f4f7;}.cls-8{fill:#748a95;}.cls-9{fill:#617880;}</style>
</defs>
<g id="Snowman">
<path class="cls-1" d="M37.8,31.42a7.61,7.61,0,0,0,1.08-8.37L32,21.41l-6.81,1.64a7.61,7.61,0,0,0,1.24,8.55l5.68,1.54Z" id="path29504-5"/>
<path class="cls-1" d="M38,33.6a12,12,0,0,1,6,10.4h0A12,12,0,1,1,26.29,33.47Z" id="path28201-6"/>
<path class="cls-2" d="M34.59,33.6a12,12,0,0,1-4.26,22.28,12.22,12.22,0,0,0,1.72.12,12,12,0,0,0,6-22.4Z" id="path67944"/>
<path class="cls-3" d="M26.29,33.47V44a1.49,1.49,0,0,0,1.49,1.49h2.43A1.49,1.49,0,0,0,31.71,44V34.08Z" id="path28484-3"/>
<path class="cls-2" d="M36.52,23.05a7.61,7.61,0,0,1-1.08,8.37H37.8a7.62,7.62,0,0,0,1.87-5,7.51,7.51,0,0,0-.8-3.38Z" id="path70289"/>
<path class="cls-4" d="M28.6,30.32A2.42,2.42,0,0,0,27.66,35a11.09,11.09,0,0,0,1.82.6V40A1.49,1.49,0,0,0,31,41.49H33.4A1.48,1.48,0,0,0,34.89,40V35.57a11.52,11.52,0,0,0,1.83-.6,2.42,2.42,0,0,0-1.89-4.45,6.87,6.87,0,0,1-5.29,0A2.37,2.37,0,0,0,28.6,30.32Z" id="path24691-9"/>
<path class="cls-5" d="M24.89,19.62l.95-8.69a1.58,1.58,0,0,1,1.57-1.41h9.44a1.6,1.6,0,0,1,1.42,1.41l.95,8.69-6.91,1.91Z" id="path30981-5"/>
<path class="cls-6" d="M39.22,19.62l-.95-8.69a1.6,1.6,0,0,0-1.42-1.41H34.18a1.61,1.61,0,0,1,1.42,1.41l.94,8.69Z" id="path63615"/>
<path class="cls-7" d="M33.5,19.62V18.45a1.4,1.4,0,0,0-1.41-1.4H29.22a1.39,1.39,0,0,0-1.4,1.4v1.17l2.92,1.14Z" id="rect31361-4"/>
<path class="cls-7" d="M30.8,8a1.52,1.52,0,1,0,0,3h1.81v1.46a1.36,1.36,0,1,0,2.72,0V11a1.52,1.52,0,1,0,0-3Z" id="rect30373-2"/>
<path class="cls-8" d="M24.89,19.62H39.22a1.72,1.72,0,0,1,0,3.43H24.89a1.72,1.72,0,0,1,0-3.43Z" id="rect29088-7"/>
<path class="cls-9" d="M36.19,19.62a1.72,1.72,0,0,1,0,3.43h3a1.72,1.72,0,0,0,0-3.43Z" id="path61281"/>
<circle cx="29.04" cy="26.66" r="1.25"/>
<circle cx="35.07" cy="26.66" r="1.25"/>
<path d="M52.44,31.74a1,1,0,0,0-1-1H50.2l.88-.88a1,1,0,0,0-1.41-1.41l-.89.88V28.08a1,1,0,0,0-2,0v3.25L42.21,35.9a12.85,12.85,0,0,0-3.05-2.78A3.35,3.35,0,0,0,39,31.56a8.52,8.52,0,0,0,1.29-7.72,2.71,2.71,0,0,0-.13-5.05l-.87-8a2.58,2.58,0,0,0-1.55-2.09A2.5,2.5,0,0,0,35.33,7H30.79a2.52,2.52,0,0,0-2.3,1.52H27.41a2.57,2.57,0,0,0-2.56,2.3l-.87,8a2.71,2.71,0,0,0-.13,5.05,8.66,8.66,0,0,0-.41,2.59,8.57,8.57,0,0,0,1.89,5.37A3.51,3.51,0,0,0,25.2,33a13,13,0,0,0-3.31,2.94l-4.57-4.57V28.08a1,1,0,0,0-2,0v1.25l-.88-.88A1,1,0,0,0,13,29.86l.88.88H12.66a1,1,0,1,0,0,2h3.25l4.84,4.85a13,13,0,1,0,22.6,0l4.85-4.85h3.24A1,1,0,0,0,52.44,31.74ZM24.89,20.62H39.22a.72.72,0,0,1,0,1.43H24.89a.72.72,0,0,1,0-1.43Zm7.61-2H28.82v-.17a.39.39,0,0,1,.4-.4h2.87a.4.4,0,0,1,.41.4Zm-6.61,5.43H38.22a6.52,6.52,0,0,1-.55,5.85,3.25,3.25,0,0,0-.61-.33,3.45,3.45,0,0,0-2.62,0,5.79,5.79,0,0,1-4.51,0,3.4,3.4,0,0,0-3.4.46,6.54,6.54,0,0,1-.64-6Zm1.4,11.85c.39.17.79.31,1.19.44V40a2.5,2.5,0,0,0,2.23,2.47V44a.49.49,0,0,1-.5.49H27.78a.48.48,0,0,1-.49-.49Zm4.41,4.59H31a.48.48,0,0,1-.49-.49V36.76a11.25,11.25,0,0,0,3.41,0V40a.48.48,0,0,1-.49.49Zm-3.65-6.44a1.42,1.42,0,0,1,.55-2.73,1.33,1.33,0,0,1,.55.12,7.89,7.89,0,0,0,6.07,0,1.42,1.42,0,1,1,1.11,2.61A10.71,10.71,0,0,1,28.05,34.05ZM30.79,9h4.54a.52.52,0,1,1,0,1,1,1,0,0,0-1,1v1.46a.36.36,0,0,1-.36.37.37.37,0,0,1-.37-.37V11a1,1,0,0,0-1-1H30.79a.52.52,0,0,1,0-1Zm-3.38,1.52h1.08A2.51,2.51,0,0,0,30.79,12h.81v.46a2.37,2.37,0,1,0,4.73,0v-.67a2.43,2.43,0,0,0,1-.72l.82,7.52H34.5v-.17a2.4,2.4,0,0,0-2.41-2.4H29.22a2.4,2.4,0,0,0-2.4,2.4v.17H26L26.83,11A.59.59,0,0,1,27.41,10.52ZM32.05,55a11,11,0,0,1-11-11,11,11,0,0,1,4.24-8.66V44a2.5,2.5,0,0,0,2.49,2.49h2.43A2.5,2.5,0,0,0,32.71,44v-1.5h.69A2.48,2.48,0,0,0,35.89,40V36.34c.41-.13.82-.28,1.22-.44A3.37,3.37,0,0,0,38.33,35a11,11,0,0,1-6.28,20Z"/>
<circle cx="32.05" cy="49.51" r="1.25"/>
<circle cx="15.64" cy="41.76" r="1.25"/>
<circle cx="18.49" cy="22.92" r="1.25"/>
<circle cx="49.61" cy="40.76" r="1.25"/>
<path d="M50,24.06l.31.18a1,1,0,0,0,.49.13,1,1,0,0,0,.51-1.86L51,22.33a1,1,0,1,0-1,1.73Z"/>
<path d="M45.5,21.44l.3.18a1,1,0,0,0,1-1.74l-.3-.17a1,1,0,1,0-1,1.73Z"/>
<path d="M45.13,23.87a1,1,0,0,0,1.37.37l.3-.18a1,1,0,0,0,.37-1.36,1,1,0,0,0-1.37-.37l-.3.18A1,1,0,0,0,45.13,23.87Z"/>
<path d="M50.54,21.75a1,1,0,0,0,.5-.13l.31-.18a1,1,0,0,0-1-1.73l-.31.17a1,1,0,0,0,.5,1.87Z"/>
<path d="M47.42,24.77a1,1,0,0,0,2,0v-.35a1,1,0,0,0-2,0Z"/>
<path d="M48.42,20.53a1,1,0,0,0,1-1v-.36a1,1,0,0,0-2,0v.36A1,1,0,0,0,48.42,20.53Z"/>
<path d="M16.6,16.71l.3.18a1,1,0,0,0,1.37-.37,1,1,0,0,0-.37-1.36L17.6,15a1,1,0,0,0-1.37.37A1,1,0,0,0,16.6,16.71Z"/>
<path d="M12.36,14.27a1,1,0,1,0,1-1.74l-.3-.17a1,1,0,1,0-1,1.73Z"/>
<path d="M11.69,16.52a1,1,0,0,0,.87.5,1,1,0,0,0,.49-.13l.31-.18a1,1,0,1,0-1-1.73l-.3.18A1,1,0,0,0,11.69,16.52Z"/>
<path d="M17.1,14.4a1,1,0,0,0,.5-.13l.3-.18a1,1,0,1,0-1-1.73l-.3.17a1,1,0,0,0,.5,1.87Z"/>
<path d="M15,18.42h0a1,1,0,0,0,1-1v-.35a1,1,0,0,0-1-1h0a1,1,0,0,0-1,1v.35A1,1,0,0,0,15,18.42Z"/>
<path d="M15,13.18a1,1,0,0,0,1-1v-.36a1,1,0,0,0-2,0v.36A1,1,0,0,0,15,13.18Z"/>
</g>
</svg>